HIERARCHY
ROOT Hips
{
	OFFSET 0.00 0.00 0.00
	CHANNELS 6 Xposition Yposition Zposition Xrotation Yrotation Zrotation
	JOINT Spine
	{
		OFFSET 0.00000 6.11665 0.00000
		CHANNELS 3 Xrotation Yrotation Zrotation
		JOINT Head
		{
			OFFSET 0.00000 15.22556 0.00000
			CHANNELS 3 Xrotation Yrotation Zrotation
			End Site
			{
				OFFSET 0.00000 4.52755 0.00000
			}
		}
		JOINT LeftShoulder
		{
			OFFSET 0.00000 8.97765 0.00000
			CHANNELS 3 Xrotation Yrotation Zrotation
			JOINT LeftArm
			{
				OFFSET 7.11013 0.00000 0.00000
				CHANNELS 3 Xrotation Yrotation Zrotation
				JOINT LeftForeArm
				{
					OFFSET 10.39834 0.00000 0.00000
					CHANNELS 3 Yrotation Zrotation Xrotation
					JOINT LeftHand
					{
						OFFSET 8.88900 0.00000 0.00000
						CHANNELS 3 Xrotation Yrotation Zrotation
						JOINT LeftHandThumb1
						{
							OFFSET 0.00000 0.00000 0.00000
							CHANNELS 3 Xrotation Zrotation Yrotation
							End Site
							{
								OFFSET 0.00000 0.00000 3.93700
							}
						}
						End Site
						{
							OFFSET 3.93700 0.00000 0.00000
						}
					}
				}
			}
		}
		JOINT RightShoulder
		{
			OFFSET 0.00000 8.97765 0.00000
			CHANNELS 3 Xrotation Yrotation Zrotation
			JOINT RightArm
			{
				OFFSET -7.11013 0.00000 0.00000
				CHANNELS 3 Xrotation Yrotation Zrotation
				JOINT RightForeArm
				{
					OFFSET -10.39834 0.00000 0.00000
					CHANNELS 3 Yrotation Zrotation Xrotation
					JOINT RightHand
					{
						OFFSET -8.88900 0.00000 0.00000
						CHANNELS 3 Xrotation Yrotation Zrotation
						JOINT RightHandThumb1
						{
							OFFSET 0.00000 0.00000 0.00000
							CHANNELS 3 Xrotation Zrotation Yrotation
							End Site
							{
								OFFSET 0.00000 0.00000 3.93700
							}
						}
						End Site
						{
							OFFSET -3.93700 0.00000 0.00000
						}
					}
				}
			}
		}
	}
	JOINT LeftUpLeg
	{
		OFFSET 4.71176 0.00000 0.00000
		CHANNELS 3 Xrotation Yrotation Zrotation
		JOINT LeftLeg
		{
			OFFSET 0.00000 -15.51045 0.00000
			CHANNELS 3 Xrotation Yrotation Zrotation
			JOINT LeftFoot
			{
				OFFSET 0.00000 -14.85806 0.00000
				CHANNELS 3 Xrotation Yrotation Zrotation
				JOINT LeftToeBase
				{
					OFFSET 0.00000 -1.32744 4.95409
					CHANNELS 3 Xrotation Yrotation Zrotation
					End Site
					{
						OFFSET 0.00000 0.00000 2.95275
					}
				}
			}
		}
	}
	JOINT RightUpLeg
	{
		OFFSET -4.71176 0.00000 0.00000
		CHANNELS 3 Xrotation Yrotation Zrotation
		JOINT RightLeg
		{
			OFFSET 0.00000 -15.51045 0.00000
			CHANNELS 3 Xrotation Yrotation Zrotation
			JOINT RightFoot
			{
				OFFSET 0.00000 -14.85806 0.00000
				CHANNELS 3 Xrotation Yrotation Zrotation
				JOINT RightToeBase
				{
					OFFSET 0.00000 -1.32744 4.95409
					CHANNELS 3 Xrotation Yrotation Zrotation
					End Site
					{
						OFFSET 0.00000 0.00000 2.95275
					}
				}
			}
		}
	}
}
MOTION
Frames:	11
Frame Time: 0.008333
-6.4981 32.3408 -0.5437 -6.0478 -4.7438 -0.8463 5.3790 -5.9893 0.1730 -9.8214 4.3560 -4.0958 1.7988 27.5477 44.4008 -20.6133 11.1290 -42.6730 -4.1236 0.0000 12.7918 -2.6794 -13.2022 -11.5799 32.8623 0.0000 24.3270 -16.0898 -6.2386 -42.4307 -18.0866 8.9394 39.3770 -8.4878 -0.0000 18.6136 -0.0765 1.4929 2.9352 33.1476 -0.0000 -26.2537 9.9677 6.1579 -6.3555 2.8862 -0.0000 -0.0000 -11.0138 23.3336 -5.6403 9.0964 -0.0000 -0.0000 6.4077 -11.3780 2.1310 11.3498 -0.0000 -0.0000 -15.4342 -5.2960 12.8874 18.2691 -0.0000 -0.0000
-6.5058 32.3397 -0.5528 -6.0188 -4.8852 -0.8441 5.3658 -5.8495 0.1077 -9.8586 4.3589 -3.9983 1.8120 27.6009 44.3972 -20.6354 10.9848 -42.6794 -4.0692 0.0000 12.7035 -2.6511 -13.2081 -11.4561 32.8623 0.0000 24.3270 -16.0944 -6.2798 -42.3549 -18.0367 8.8855 39.4174 -8.1067 -0.0000 18.3428 -0.0708 1.3772 2.9427 33.1476 -0.0000 -26.2537 9.9547 6.3505 -6.3598 2.8689 -0.0000 -0.0000 -10.9718 23.2735 -5.6214 8.9487 -0.0000 -0.0000 6.3065 -11.0563 2.1427 11.4004 -0.0000 -0.0000 -15.4544 -5.4770 12.8427 18.3960 -0.0000 -0.0000
-6.4999 32.3404 -0.5456 -6.0376 -4.7688 -0.8635 5.3743 -5.9805 0.1797 -9.8436 4.3942 -4.0665 1.8364 27.6053 44.3533 -20.6173 10.9588 -42.7252 -4.0738 0.0000 12.6686 -2.6503 -13.1833 -11.4732 32.8623 0.0000 24.3270 -16.1168 -6.2638 -42.3380 -17.9854 8.8109 39.4198 -7.6729 0.0000 18.1662 -0.0684 1.2769 3.0678 33.1476 -0.0000 -26.2537 9.9538 6.2044 -6.3361 2.8965 -0.0000 -0.0000 -11.0379 23.3072 -5.6552 9.0897 -0.0000 -0.0000 6.4202 -11.1630 2.1679 11.2761 -0.0000 -0.0000 -15.4066 -5.4833 12.9304 18.4692 -0.0000 -0.0000
-6.4993 32.3403 -0.5435 -6.0482 -4.7523 -0.8743 5.3769 -6.0057 0.1927 -9.8265 4.4212 -4.0616 1.7316 27.4705 44.4127 -20.4608 11.0172 -42.7736 -4.1133 0.0000 12.7397 -2.6264 -13.1820 -11.3732 32.8623 0.0000 24.3270 -16.0750 -6.3069 -42.2903 -18.0361 8.7351 39.4577 -7.2804 -0.0000 18.1061 -0.0670 1.2438 3.0822 33.1476 -0.0000 -26.2537 9.9596 6.2258 -6.3223 2.9172 -0.0000 -0.0000 -11.0483 23.2663 -5.6527 9.0579 -0.0000 -0.0000 6.4656 -11.0700 2.1901 11.2256 -0.0000 -0.0000 -15.4077 -5.5784 12.9326 18.3371 -0.0000 -0.0000
-6.4998 32.3399 -0.5452 -6.0367 -4.7679 -0.8835 5.3614 -6.0004 0.2033 -9.8174 4.4442 -4.0673 1.7247 27.4235 44.3942 -20.4580 11.0518 -42.7848 -4.1231 0.0000 12.7132 -2.6040 -13.1587 -11.2979 32.8623 0.0000 24.3270 -16.0816 -6.3061 -42.2324 -18.0628 8.5991 39.4852 -6.7923 -0.0000 18.1197 -0.0657 1.2065 3.1193 33.1476 -0.0000 -26.2537 9.9455 6.2578 -6.3148 2.9199 -0.0000 -0.0000 -11.0469 23.2551 -5.6510 9.0251 -0.0000 -0.0000 6.4646 -10.9643 2.2096 11.1842 -0.0000 -0.0000 -15.3696 -5.6556 12.9265 18.3898 -0.0000 -0.0000
-6.5001 32.3398 -0.5452 -6.0396 -4.7727 -0.8920 5.3654 -5.9883 0.2111 -9.8233 4.4394 -4.0758 1.7806 27.4827 44.3733 -20.6155 11.0753 -42.8621 -4.1163 -0.0000 12.6863 -2.5339 -13.1813 -10.9826 32.8623 0.0000 24.3270 -16.1078 -6.3133 -42.1561 -18.0764 8.4646 39.4875 -6.2858 0.0000 18.2087 -0.0773 1.3370 3.3083 33.1476 -0.0000 -26.2537 9.9487 6.2640 -6.3064 2.9202 -0.0000 -0.0000 -11.0657 23.2504 -5.6473 9.1182 -0.0000 -0.0000 6.4805 -10.8597 2.2283 11.1533 -0.0000 -0.0000 -15.3581 -5.7489 12.9131 18.3944 -0.0000 -0.0000
-6.5001 32.3397 -0.5447 -6.0441 -4.7756 -0.9027 5.3691 -6.0044 0.2180 -9.8214 4.4604 -4.0592 1.6939 27.3929 44.3756 -20.5225 11.0964 -42.8834 -4.1399 0.0000 12.5591 -2.5105 -13.2425 -10.8353 32.8623 0.0000 24.3270 -16.1036 -6.3086 -42.0844 -17.8543 8.5022 39.5235 -5.6952 0.0000 17.9332 -0.0718 1.3134 3.1291 33.1476 -0.0000 -26.2537 9.9521 6.2822 -6.2954 2.9276 -0.0000 -0.0000 -11.0648 23.2325 -5.6534 8.9927 -0.0000 -0.0000 6.5133 -10.7638 2.2500 11.0969 -0.0000 -0.0000 -15.3557 -5.8508 12.9564 18.4653 -0.0000 -0.0000
-6.5001 32.3392 -0.5452 -6.0432 -4.7828 -0.9102 5.3697 -6.0064 0.2247 -9.8288 4.4726 -4.0494 1.6760 27.3798 44.3680 -20.5194 11.1307 -42.9676 -4.2295 0.0000 12.3783 -2.4529 -13.2127 -10.6150 32.8623 0.0000 24.3270 -16.0831 -6.3344 -42.0252 -17.6425 8.5023 39.5718 -4.9609 -0.0000 17.6691 -0.0734 1.2753 3.2931 33.1476 -0.0000 -26.2537 9.9439 6.2896 -6.2869 2.9420 -0.0000 -0.0000 -11.0819 23.2250 -5.6467 9.0105 -0.0000 -0.0000 6.5255 -10.6762 2.2645 11.0638 -0.0000 -0.0000 -15.3361 -5.9247 12.9633 18.4806 -0.0000 -0.0000
-6.5005 32.3387 -0.5454 -6.0419 -4.7940 -0.9228 5.3729 -5.9864 0.2198 -9.8535 4.4717 -3.9968 1.6962 27.4265 44.3534 -20.6470 11.1961 -43.0730 -4.3555 -0.0000 12.1695 -2.3982 -13.1824 -10.4061 32.8623 0.0000 24.3270 -16.0754 -6.3876 -41.9384 -17.4926 8.4310 39.6386 -4.2013 0.0000 17.5341 -0.0837 1.6648 2.8783 33.1476 -0.0000 -26.2537 9.9418 6.3306 -6.2739 2.9507 -0.0000 -0.0000 -11.0908 23.1975 -5.6682 8.9530 -0.0000 -0.0000 6.5390 -10.5814 2.2841 11.0277 -0.0000 -0.0000 -15.3271 -6.0039 12.9961 18.5040 -0.0000 -0.0000
-6.5065 32.3379 -0.5541 -6.0176 -4.9139 -0.9192 5.3684 -5.8628 0.1613 -9.8984 4.4561 -3.9050 1.6843 27.4630 44.3599 -20.8190 11.3363 -43.1789 -4.5318 0.0000 12.0831 -2.3070 -13.1872 -10.0147 32.8623 0.0000 24.3270 -16.0576 -6.4194 -41.8121 -17.0593 8.5050 39.6677 -3.2968 0.0000 17.0574 -0.0894 1.7585 2.9114 33.1476 -0.0000 -26.2537 9.9262 6.4865 -6.2803 2.9440 -0.0000 -0.0000 -11.0928 23.1569 -5.7173 9.0146 -0.0000 -0.0000 6.4666 -10.2517 2.2955 11.0449 -0.0000 -0.0000 -15.3520 -6.2649 13.0495 18.6704 -0.0000 -0.0000
-6.5010 32.3373 -0.5488 -6.0384 -4.8176 -0.9350 5.3944 -5.9502 0.2056 -9.9296 4.4547 -3.9135 1.6472 27.4594 44.3047 -20.9433 11.5020 -43.2656 -4.7852 -0.0000 11.9332 -2.2558 -13.1648 -9.8125 32.8623 0.0000 24.3270 -15.9819 -6.5141 -41.7464 -17.1190 8.1479 39.7516 -2.1044 -0.0000 17.0349 -0.0968 1.7190 3.2234 33.1476 -0.0000 -26.2537 9.9281 6.3542 -6.2630 2.9646 -0.0000 -0.0000 -11.1295 23.2071 -5.7078 9.0930 -0.0000 -0.0000 6.5622 -10.3214 2.3237 10.9485 -0.0000 -0.0000 -15.2686 -6.1491 12.7664 18.1154 -0.0000 -0.0000
